<?xml version="1.0" encoding="UTF-8" standalone="no"?>
<svg
   xmlns:dc="http://purl.org/dc/elements/1.1/"
   xmlns:cc="http://creativecommons.org/ns#"
   xmlns:rdf="http://www.w3.org/1999/02/22-rdf-syntax-ns#"
   xmlns:svg="http://www.w3.org/2000/svg"
   xmlns="http://www.w3.org/2000/svg"
   viewBox="0 0 100 100"
   height="160"
   width="160"
   xml:space="preserve"
   id="svg2"
   version="1.1">
  <g>
    <g>
      <g id="bg" transform="translate(-30,-10)">
        <circle style="fill:indigo;fill-opacity:1" cx="74" cy="60" r="30" />
        <path style="fill:#ffffff;fill-opacity:0" d="M 16300,0 H 0 V 16300 H 16300 V 0" />
      </g>
      <g transform="translate(-30,-10)">
        <path style="fill:none"
          d="M 123.0906 69.391 c -0.1686 0.154 -0.3371 0.308 -0.5056 0.463 c -1.5669 -2.252 -3.1339 -4.503 -4.7008 -6.754 c 0.2172 -0.146 0.4344 -0.293 0.6516 -0.439 c 1.5183 2.243 3.0365 4.487 4.5548 6.73 z
             M 87.9971 87.0998 c -1.2453 2.715 -1.7118 2.9879 -4.7158 2.3677 c -1.0067 -0.2083 -2.0156 -0.4392 -2.9921 -0.7563 c -3.7292 -1.2087 -7.4312 -1.1449 -11.1462 0.0723 c -0.972 0.3178 -1.99 0.496 -2.989 0.7303 c -3.018 0.7079 -3.814 0.2203 -4.748 -2.856 c 0.936 -0.1466 1.928 -0.1529 2.811 -0.4672 c 3.102 -1.1049 6.146 -2.3755 9.259 -3.4446 c 0.8 -0.2743 1.855 -0.2722 2.654 0.0042 c 3.9901 1.38 7.9342 2.8932 11.8671 4.3496 z
             M 46.035 116.7458 c -12.049 -10.8228 -9.562 -28.5698 2.348 -36.7323 c -3.61 5.6734 -5.237 11.6464 -5.648 18.5481 c 2.62 -7.021 5.177 -11.1777 7.789 -12.9316 c -5.606 9.6702 -8.936 19.7423 -4.489 31.1158 z
             M 68.406 102.0554 c -0.552 -0.7626 -0.886 -1.2895 -1.284 -1.763 c -2.285 -2.7171 -1.511 -6.0509 1.768 -7.3824 c 4.159 -1.6893 8.315 -1.6311 12.4115 0.2238 c 2.1622 0.9786 3.0545 2.4751 2.3509 4.6414 c -0.4721 1.4529 -1.5546 2.7073 -2.5543 4.365 c -0.5599 -1.1603 -0.8307 -1.7215 -1.1701 -2.4266 c -1.953 1.8282 -3.739 3.5014 -5.534 5.1823 c -1.503 -1.6325 -3.113 -3.3828 -4.925 -5.3521 c -0.328 0.7731 -0.579 1.3652 -1.063 2.5116 z
             M 99.7529 78.334 C 114.3255 87.9466 115.463 106.5523 103.4374 116.4497 C 107.7653 104.8601 104.6048 94.4583 98.2551 84.5314 C 102.4616 88.284 105.0846 93.0223 106.68 98.4052 c -1.4943 -12.0708 -3.0314 -14.4083 -6.9271 -20.0712 z
             M 100.3674 102.4559 c 0.1846 0.0435 0.3684 0.0877 0.5529 0.1312 c -0.2624 1.93 -0.4097 3.8838 -0.8075 5.785 c -1.441 6.8878 -5.806 11.7474 -11.2388 15.8058 c -3.5007 2.6154 -7.0597 5.1522 -10.66 7.7732 c 0.104 -0.5045 0.234 -1.0229 0.314 -1.5483 c 1.188 -7.7585 8.2687 -11.9018 11.5632 -18.4556 c -0.3725 1.6493 -0.7451 3.2987 -1.2284 5.4384 c 1.5237 -1.7644 2.8924 -3.103 3.9679 -4.645 c 2.3741 -3.4025 3.9462 -7.1529 4.0037 -11.4513 c 0.2119 0.0217 0.4238 0.0442 0.6349 0.0659 c 0.2063 2.0485 0.4126 4.0963 0.6322 6.2817 c 0.8095 -1.8514 1.5377 -3.5162 2.2659 -5.181 z
             M 71.072 132.1419 c -2.097 -1.6129 -4.202 -3.2524 -6.328 -4.8638 c -2.144 -1.6262 -4.353 -3.1703 -6.455 -4.8484 c -3.167 -2.5298 -5.756 -5.557 -7.408 -9.3018 c -1.49 -3.3766 -2.425 -6.8506 -1.802 -10.8481 c 0.899 2.0331 1.674 3.7849 2.394 5.4118 c 0.154 -2.0885 0.308 -4.1826 0.462 -6.2768 c 0.195 0.0169 0.389 0.0337 0.583 0.0506 c 0.72 6.5054 4.067 13.0052 7.865 15.4186 c -0.264 -1.5519 -0.544 -3.197 -0.894 -5.2567 c 1.886 2.7177 3.261 5.2104 5.119 7.2673 c 3.464 3.8382 5.756 8.1407 6.464 13.2473 z
             M 65.076 61.39 c -2.913 4.314 -1.682 8.107 2.877 9.115 c 2.201 0.487 3.471 1.71 4.512 3.418 c 1.197 1.963 0.864 4.443 -1.193 5.375 c -2.895 1.3111 -6.011 2.228 -9.118 2.9394 c -1.754 0.402 -2.976 -0.8875 -3.638 -2.4454 c 1.806 -0.557 3.489 -1.078 5.173 -1.598 c 0.041 -0.181 0.081 -0.362 0.122 -0.543 c -0.541 -0.181 -1.079 -0.503 -1.623 -0.513 c -1.026 -0.021 -2.07 0.273 -3.079 0.165 c -0.498 -0.053 -0.931 -0.708 -1.394 -1.091 c 0.43 -0.389 0.8 -0.98 1.3 -1.129 c 1.582 -0.469 3.214 -0.773 4.826 -1.141 c -0.028 -0.23 -0.058 -0.459 -0.087 -0.689 c -1.946 0 -3.893 0 -6.348 0 c 1.393 -5.698 2.559 -11.017 5.046 -15.951 c 0.02 -0.04 0.237 0.019 0.466 0.041 c 0.094 0.477 0.192 0.974 0.293 1.486 c 2.029 -3.821 3.992 -7.519 5.64 -10.625 c -1.613 -2.162 -3.062 -4.103 -4.493 -6.02 c -0.357 1.233 -0.751 2.594 -1.161 4.011 c -3.274 -1.246 -6.551 -2.339 -10.283 -0.815 c 3.631 2.171 5.472 6.419 10.121 6.353 c -0.903 4.84 -4.05 8.009 -6.182 11.238 c -2.507 -2.846 -4.964 -5.806 -7.622 -8.572 c -1.124 -1.168 -1.425 -2.193 -0.884 -3.671 c 1.419 -3.875 2.606 -7.842 4.204 -11.639 c 0.797 -1.895 0.465 -2.791 -1.363 -3.343 c -0.788 -0.238 -1.574 -0.506 -2.381 -0.652 c -5.658 -1.029 -8.358 1.774 -7.045 7.286 c -2.16 -1.022 -3.966 -2.887 -4.76 -4.917 c -1.067 -2.725 -0.528 -5.088 2.118 -6.342 c 2.031 -0.963 4.549 -1.769 6.676 -1.455 c 3.328 0.49 6.494 2.028 9.757 3.029 c 0.988 0.303 2.096 0.521 3.104 0.401 c 6.268 -0.744 12.068 -0.288 15.982 5.715 c 1.805 -3.141 4.422 -5.162 7.8874 -5.578 c 2.7101 -0.325 5.4938 0.003 8.2418 -0.071 c 1.0958 -0.029 2.3382 -0.086 3.2474 -0.6 c 3.841 -2.173 7.8812 -3.213 12.2961 -2.866 c 4.5596 0.358 7.2654 3.158 6.4667 6.993 c -0.5632 2.703 -2.4708 4.423 -4.9872 5.999 c 0.3992 -3.12 0.4743 -5.864 -2.6575 -7.19 c -3.3098 -1.402 -6.2276 -0.216 -8.8591 1.315 c 1.7735 4.954 3.432 9.68 5.1718 14.377 c 0.4525 1.221 0.1438 2.016 -0.7036 2.94 c -2.8609 3.12 -5.6222 6.33 -8.3961 9.477 c -0.6854 -1.152 -1.5848 -2.664 -2.4842 -4.175 c -0.1523 0.051 -0.3045 0.101 -0.4574 0.152 c 1.0979 4.466 2.1958 8.933 3.3604 13.671 c -1.8682 0.217 -3.3436 0.387 -4.8189 0.558 c 0.8769 0.351 1.8443 0.387 2.6953 0.72 c 0.6889 0.27 1.6016 0.793 1.7735 1.389 c 0.383 1.325 -0.644 1.825 -1.803 1.872 c -1.4024 0.057 -2.8089 0.014 -4.2141 0.014 c -0.0295 0.053 -0.0597 0.106 -0.0892 0.16 c 1.7483 0.443 3.4972 0.887 5.2406 1.328 c -0.3859 1.9697 -1.8654 3.196 -4.1082 3.1953 c -3.5836 -0.0014 -6.7559 -1.3967 -9.5195 -3.5163 c -0.8 -0.614 -1.229 -2.144 -1.238 -3.259 c -0.017 -2.014 2.669 -4.727 4.6884 -5.166 c 4.2394 -0.921 5.5345 -4.34 3.2264 -7.831 c -0.5311 0.681 -1.1071 2.069 -1.6985 2.075 c -4.1293 0.043 -8.0673 3.48 -12.3683 0.711 c -0.643 -0.414 -1.6 -0.451 -2.415 -0.466 c -2.172 -0.04 -3.151 -1.134 -3.041 -3.649 z
             M 32.795 79.238 c 2.817 -2.411 6.017 -5.149 9.216 -7.888 c 0.121 0.138 0.241 0.276 0.361 0.414 c -1.98 2.079 -4.051 4.079 -5.925 6.251 c -11.755 13.6259 -8.444 32.4919 5.319 42.7604 c 4.761 3.5519 10.31 6.0691 15.578 8.9153 c 5.764 3.1155 11.176 6.6177 14.884 12.2034 c 0.944 1.4227 1.735 2.9458 2.627 4.4738 c 3.477 -7.5803 9.7073 -12.369 16.7915 -16.2928 c 5.1234 -2.8377 10.5401 -5.2882 15.2509 -8.7041 c 11.1539 -8.0902 16.0134 -20.6766 11.7124 -33.8847 c -2.0956 -6.4352 -6.4343 -11.3303 -11.6654 -15.4793 c -0.1592 -0.125 -0.3192 -0.25 -0.6047 -0.475 c 2.9262 0.478 6.9529 3.731 10.7559 8.7011 c -2.4628 -7.8171 -6.0699 -14.4131 -11.9836 -19.6501 c 6.5655 2.968 12.2056 6.993 16.0009 13.294 c 3.7612 6.2438 4.8919 13.0186 4.2795 20.2046 c 4.9479 -9.5705 6.5401 -19.4246 2.1839 -29.5776 c -2.2531 -5.251 -6.4549 -8.935 -11.3959 -11.635 c -3.8035 -2.079 -7.7992 -3.805 -11.7075 -5.691 c -0.8341 -0.402 -1.6606 -0.82 -2.3979 -1.412 c 7.8833 1.635 15.9549 2.658 22.5049 7.983 c 0.1356 -0.127 0.2711 -0.253 0.4066 -0.38 c -2.4434 -3.06 -4.8867 -6.119 -7.4651 -9.348 c 2.0859 -3.306 3.0457 -7.034 1.6396 -11.141 c -1.9013 -5.553 -6.7134 -8.948 -12.8325 -9.427 c -7.2091 -0.565 -13.2656 2.177 -19.1087 5.943 c 2.6146 -3.556 5.8677 -6.375 9.7613 -8.496 c -6.5518 -3.9 -16.7088 -0.846 -22.4051 6.9 c -5.317 -8.95 -13.393 -9.214 -22.779 -7.077 c 4.69 1.976 7.877 4.987 10.43 8.719 c -5.045 -3.436 -10.42 -5.826 -16.616 -6.086 c -7.541 -0.317 -13.542 3.475 -15.557 9.801 c -1.281 4.026 -0.286 7.587 1.946 10.89 c -2.527 3.173 -4.986 6.26 -7.446 9.348 c 6.713 -5.013 14.724 -5.837 22.593 -7.194 c -1.314 0.596 -2.623 1.205 -3.944 1.785 c -5.872 2.579 -11.694 5.194 -16.412 9.766 c -4.769 4.621 -7.059 10.211 -7.331 16.772 c -0.285 6.8828 0.985 13.3875 4.562 19.9764 c -0.875 -15.7284 5.474 -26.6944 19.321 -33.1854 c -5.067 5.341 -8.872 11.407 -10.548 17.923
             "
        />
        <path style="fill:#884500"
          d="
             M 87.9971 87.0998 c -1.2453 2.715 -1.7118 2.9879 -4.7158 2.3677 c -1.0067 -0.2083 -2.0156 -0.4392 -2.9921 -0.7563 c -3.7292 -1.2087 -7.4312 -1.1449 -11.1462 0.0723 c -0.972 0.3178 -1.99 0.496 -2.989 0.7303 c -3.018 0.7079 -3.814 0.2203 -4.748 -2.856 c 0.936 -0.1466 1.928 -0.1529 2.811 -0.4672 c 3.102 -1.1049 6.146 -2.3755 9.259 -3.4446 c 0.8 -0.2743 1.855 -0.2722 2.654 0.0042 c 3.9901 1.38 7.9342 2.8932 11.8671 4.3496 z
             M 65.076 61.39 c -2.913 4.314 -1.682 8.107 2.877 9.115 c 2.201 0.487 3.471 1.71 4.512 3.418 c 1.197 1.963 0.864 4.443 -1.193 5.375 c -2.895 1.3111 -6.011 2.228 -9.118 2.9394 c -1.754 0.402 -2.976 -0.8875 -3.638 -2.4454 c 1.806 -0.557 3.489 -1.078 5.173 -1.598 c 0.041 -0.181 0.081 -0.362 0.122 -0.543 c -0.541 -0.181 -1.079 -0.503 -1.623 -0.513 c -1.026 -0.021 -2.07 0.273 -3.079 0.165 c -0.498 -0.053 -0.931 -0.708 -1.394 -1.091 c 0.43 -0.389 0.8 -0.98 1.3 -1.129 c 1.582 -0.469 3.214 -0.773 4.826 -1.141 c -0.028 -0.23 -0.058 -0.459 -0.087 -0.689 c -1.946 0 -3.893 0 -6.348 0 c 1.393 -5.698 2.559 -11.017 5.046 -15.951 c 0.02 -0.04 0.237 0.019 0.466 0.041 c 0.094 0.477 0.192 0.974 0.293 1.486 c 2.029 -3.821 3.992 -7.519 5.64 -10.625 c -1.613 -2.162 -3.062 -4.103 -4.493 -6.02 c -0.357 1.233 -0.751 2.594 -1.161 4.011 c -3.274 -1.246 -6.551 -2.339 -10.283 -0.815 c 3.631 2.171 5.472 6.419 10.121 6.353 c -0.903 4.84 -4.05 8.009 -6.182 11.238 c -2.507 -2.846 -4.964 -5.806 -7.622 -8.572 c -1.124 -1.168 -1.425 -2.193 -0.884 -3.671 c 1.419 -3.875 2.606 -7.842 4.204 -11.639 c 0.797 -1.895 0.465 -2.791 -1.363 -3.343 c -0.788 -0.238 -1.574 -0.506 -2.381 -0.652 c -5.658 -1.029 -8.358 1.774 -7.045 7.286 c -2.16 -1.022 -3.966 -2.887 -4.76 -4.917 c -1.067 -2.725 -0.528 -5.088 2.118 -6.342 c 2.031 -0.963 4.549 -1.769 6.676 -1.455 c 3.328 0.49 6.494 2.028 9.757 3.029 c 0.988 0.303 2.096 0.521 3.104 0.401 c 6.268 -0.744 12.068 -0.288 15.982 5.715 c 1.805 -3.141 4.422 -5.162 7.8874 -5.578 c 2.7101 -0.325 5.4938 0.003 8.2418 -0.071 c 1.0958 -0.029 2.3382 -0.086 3.2474 -0.6 c 3.841 -2.173 7.8812 -3.213 12.2961 -2.866 c 4.5596 0.358 7.2654 3.158 6.4667 6.993 c -0.5632 2.703 -2.4708 4.423 -4.9872 5.999 c 0.3992 -3.12 0.4743 -5.864 -2.6575 -7.19 c -3.3098 -1.402 -6.2276 -0.216 -8.8591 1.315 c 1.7735 4.954 3.432 9.68 5.1718 14.377 c 0.4525 1.221 0.1438 2.016 -0.7036 2.94 c -2.8609 3.12 -5.6222 6.33 -8.3961 9.477 c -0.6854 -1.152 -1.5848 -2.664 -2.4842 -4.175 c -0.1523 0.051 -0.3045 0.101 -0.4574 0.152 c 1.0979 4.466 2.1958 8.933 3.3604 13.671 c -1.8682 0.217 -3.3436 0.387 -4.8189 0.558 c 0.8769 0.351 1.8443 0.387 2.6953 0.72 c 0.6889 0.27 1.6016 0.793 1.7735 1.389 c 0.383 1.325 -0.644 1.825 -1.803 1.872 c -1.4024 0.057 -2.8089 0.014 -4.2141 0.014 c -0.0295 0.053 -0.0597 0.106 -0.0892 0.16 c 1.7483 0.443 3.4972 0.887 5.2406 1.328 c -0.3859 1.9697 -1.8654 3.196 -4.1082 3.1953 c -3.5836 -0.0014 -6.7559 -1.3967 -9.5195 -3.5163 c -0.8 -0.614 -1.229 -2.144 -1.238 -3.259 c -0.017 -2.014 2.669 -4.727 4.6884 -5.166 c 4.2394 -0.921 5.5345 -4.34 3.2264 -7.831 c -0.5311 0.681 -1.1071 2.069 -1.6985 2.075 c -4.1293 0.043 -8.0673 3.48 -12.3683 0.711 c -0.643 -0.414 -1.6 -0.451 -2.415 -0.466 c -2.172 -0.04 -3.151 -1.134 -3.041 -3.649 z
             "
        />
        <path style="fill:#d0d5c8"
          d="
             M 87.9971 87.0998 c -1.2453 2.715 -1.7118 2.9879 -4.7158 2.3677 c -1.0067 -0.2083 -2.0156 -0.4392 -2.9921 -0.7563 c -3.7292 -1.2087 -7.4312 -1.1449 -11.1462 0.0723 c -0.972 0.3178 -1.99 0.496 -2.989 0.7303 c -3.018 0.7079 -3.814 0.2203 -4.748 -2.856 c 0.936 -0.1466 1.928 -0.1529 2.811 -0.4672 c 3.102 -1.1049 6.146 -2.3755 9.259 -3.4446 c 0.8 -0.2743 1.855 -0.2722 2.654 0.0042 c 3.9901 1.38 7.9342 2.8932 11.8671 4.3496 z
             M57 72C56 71 55 64 64.061 67.989 64.973 69.392 66 70 67.953 70.505 70.154 70.992 71.424 72.215 72.465 73.923 73.662 75.886 73.329 78.366 71.272 79.298 68.377 80.6091 65.261 81.526 62.154 82.2374 60.4 82.6394 59.178 81.3499 58.516 79.792 60.322 79.235 62.005 78.714 63.689 78.194 63.73 78.013 63.77 77.832 63.811 77.651 63.27 77.47 62.732 77.148 62.188 77.138 61.162 77.117 60.118 77.411 59.109 77.303 58.611 77.25 58.178 76.595 57.715 76.212 58.145 75.823 58.515 75.232 59.015 75.083 60.597 74.614 62.229 74.31 63.841 73.942 63.813 73.712 63.783 73.483 63.754 73.253 61.808 73.253 60 74 57 72M76.684 75.716C76.667 73.702 79.353 70.989 81.3724 70.55 82.67 70.2 83.341 69.967 84.486 68.975 88.746 68.11 95.332 68.321 91.381 72.94 90.522 73.396 89.4219 73.642 87.9466 73.813 88.8235 74.164 89.7909 74.2 90.6419 74.533 91.3308 74.803 92.2435 75.326 92.4154 75.922 92.7984 77.247 91.7714 77.747 90.6124 77.794 89.21 77.851 87.8035 77.808 86.3983 77.808 86.3688 77.861 86.3386 77.914 86.3091 77.968 88.0574 78.411 89.8063 78.855 91.5497 79.296 91.1638 81.2657 89.6843 82.492 87.4415 82.4913 83.8579 82.4899 80.6856 81.0946 77.922 78.975 77.122 78.361 76.693 76.831 76.684 75.716
             "
        />
        <path style="fill:none"
          d="
             M 46.035 116.7458 c -12.049 -10.8228 -9.562 -28.5698 2.348 -36.7323 c -3.61 5.6734 -5.237 11.6464 -5.648 18.5481 c 2.62 -7.021 5.177 -11.1777 7.789 -12.9316 c -5.606 9.6702 -8.936 19.7423 -4.489 31.1158 z
             M 68.406 102.0554 c -0.552 -0.7626 -0.886 -1.2895 -1.284 -1.763 c -2.285 -2.7171 -1.511 -6.0509 1.768 -7.3824 c 4.159 -1.6893 8.315 -1.6311 12.4115 0.2238 c 2.1622 0.9786 3.0545 2.4751 2.3509 4.6414 c -0.4721 1.4529 -1.5546 2.7073 -2.5543 4.365 c -0.5599 -1.1603 -0.8307 -1.7215 -1.1701 -2.4266 c -1.953 1.8282 -3.739 3.5014 -5.534 5.1823 c -1.503 -1.6325 -3.113 -3.3828 -4.925 -5.3521 c -0.328 0.7731 -0.579 1.3652 -1.063 2.5116 z
             M 99.7529 78.334 C 114.3255 87.9466 115.463 106.5523 103.4374 116.4497 C 107.7653 104.8601 104.6048 94.4583 98.2551 84.5314 C 102.4616 88.284 105.0846 93.0223 106.68 98.4052 c -1.4943 -12.0708 -3.0314 -14.4083 -6.9271 -20.0712 z
             M 100.3674 102.4559 c 0.1846 0.0435 0.3684 0.0877 0.5529 0.1312 c -0.2624 1.93 -0.4097 3.8838 -0.8075 5.785 c -1.441 6.8878 -5.806 11.7474 -11.2388 15.8058 c -3.5007 2.6154 -7.0597 5.1522 -10.66 7.7732 c 0.104 -0.5045 0.234 -1.0229 0.314 -1.5483 c 1.188 -7.7585 8.2687 -11.9018 11.5632 -18.4556 c -0.3725 1.6493 -0.7451 3.2987 -1.2284 5.4384 c 1.5237 -1.7644 2.8924 -3.103 3.9679 -4.645 c 2.3741 -3.4025 3.9462 -7.1529 4.0037 -11.4513 c 0.2119 0.0217 0.4238 0.0442 0.6349 0.0659 c 0.2063 2.0485 0.4126 4.0963 0.6322 6.2817 c 0.8095 -1.8514 1.5377 -3.5162 2.2659 -5.181 z
             M 71.072 132.1419 c -2.097 -1.6129 -4.202 -3.2524 -6.328 -4.8638 c -2.144 -1.6262 -4.353 -3.1703 -6.455 -4.8484 c -3.167 -2.5298 -5.756 -5.557 -7.408 -9.3018 c -1.49 -3.3766 -2.425 -6.8506 -1.802 -10.8481 c 0.899 2.0331 1.674 3.7849 2.394 5.4118 c 0.154 -2.0885 0.308 -4.1826 0.462 -6.2768 c 0.195 0.0169 0.389 0.0337 0.583 0.0506 c 0.72 6.5054 4.067 13.0052 7.865 15.4186 c -0.264 -1.5519 -0.544 -3.197 -0.894 -5.2567 c 1.886 2.7177 3.261 5.2104 5.119 7.2673 c 3.464 3.8382 5.756 8.1407 6.464 13.2473 z
             "
        />
        <path style="fill:navy"
          d="M 77.492 48.387 c 2.039 3.163 4.153 6.442 6.561 10.176 c 0 -1.996 0 -3.549 0 -5.579 c 6.034 0.594 7.885 -5.147 12.2507 -7.334 c -3.7827 -1.492 -6.7597 -1.277 -12.3737 0.896 c -0.48 -1.49 -0.958 -2.97 -1.531 -4.746 c -0.788 1.288 -1.411 2.48 -2.201 3.548 c -0.748 1.011 -1.672 1.893 -2.706 3.039"
        />
      </g>
    </g>
  </g>
</svg>
